<svg width="46" height="46" viewBox="0 0 46 46" fill="none" xmlns="http://www.w3.org/2000/svg">
<g clip-path="url(#clip0_1_270)">
<path d="M27.6859 37.7216C28.6547 37.7216 29.4431 36.9332 29.4431 35.9644C29.4431 34.9956 28.6547 34.2072 27.6859 34.2072C26.9233 34.2072 26.279 34.6986 26.0365 35.3786H23.5857V31.8642H26.0365C26.279 32.5443 26.9233 33.0357 27.6859 33.0357C28.6547 33.0357 29.4431 32.2473 29.4431 31.2785C29.4431 30.3097 28.6547 29.5213 27.6859 29.5213C26.9233 29.5213 26.279 30.0127 26.0365 30.6927H23.5857V27.1783H26.0365C26.279 27.8583 26.9233 28.3498 27.6859 28.3498C28.6547 28.3498 29.4431 27.5614 29.4431 26.5926C29.4431 25.6238 28.6547 24.8354 27.6859 24.8354C26.9233 24.8354 26.279 25.3268 26.0365 26.0068H23.5857V24.8354H22.4143V22.3846C23.0943 22.1421 23.5857 21.4978 23.5857 20.7352C23.5857 19.7664 22.7973 18.978 21.8285 18.978C20.8597 18.978 20.0713 19.7664 20.0713 20.7352C20.0713 21.4978 20.5627 22.1421 21.2428 22.3846V24.8354H17.7283V22.3846C18.4084 22.1421 18.8998 21.4978 18.8998 20.7352C18.8998 19.7664 18.1114 18.978 17.1426 18.978C16.1738 18.978 15.3854 19.7664 15.3854 20.7352C15.3854 21.4978 15.8768 22.1421 16.5569 22.3846V24.8354H13.0424V22.3846C13.7225 22.1421 14.2139 21.4978 14.2139 20.7352C14.2139 19.7664 13.4255 18.978 12.4567 18.978C11.4879 18.978 10.6995 19.7664 10.6995 20.7352C10.6995 21.4978 11.1909 22.1421 11.871 22.3846V24.8354H10.6995V26.0068H8.24876C8.00626 25.3268 7.36195 24.8354 6.59932 24.8354C5.63051 24.8354 4.8421 25.6238 4.8421 26.5926C4.8421 27.5614 5.63051 28.3498 6.59932 28.3498C7.36195 28.3498 8.00626 27.8583 8.24876 27.1783H10.6995V30.6927H8.24876C8.00626 30.0127 7.36195 29.5213 6.59932 29.5213C5.63051 29.5213 4.8421 30.3097 4.8421 31.2785C4.8421 32.2473 5.63051 33.0357 6.59932 33.0357C7.36195 33.0357 8.00626 32.5443 8.24876 31.8642H10.6995V35.3786H8.24876C8.00626 34.6986 7.36195 34.2072 6.59932 34.2072C5.63051 34.2072 4.8421 34.9956 4.8421 35.9644C4.8421 36.9332 5.63051 37.7216 6.59932 37.7216C7.36195 37.7216 8.00626 37.2302 8.24876 36.5501H10.6995V37.7216H11.871V40.1723C11.1909 40.4148 10.6995 41.0591 10.6995 41.8218C10.6995 42.7906 11.4879 43.579 12.4567 43.579C13.4255 43.579 14.2139 42.7906 14.2139 41.8218C14.2139 41.0591 13.7225 40.4148 13.0424 40.1723V37.7216H16.5569V40.1723C15.8768 40.4148 15.3854 41.0591 15.3854 41.8218C15.3854 42.7906 16.1738 43.579 17.1426 43.579C18.1114 43.579 18.8998 42.7906 18.8998 41.8218C18.8998 41.0591 18.4084 40.4148 17.7283 40.1723V37.7216H21.2428V40.1723C20.5627 40.4148 20.0713 41.0591 20.0713 41.8218C20.0713 42.7906 20.8597 43.579 21.8285 43.579C22.7973 43.579 23.5857 42.7906 23.5857 41.8218C23.5857 41.0591 23.0943 40.4148 22.4143 40.1723V37.7216H23.5857V36.5501H26.0365C26.279 37.2302 26.9233 37.7216 27.6859 37.7216ZM27.6859 35.3786C28.0092 35.3786 28.2716 35.6411 28.2716 35.9644C28.2716 36.2877 28.0092 36.5501 27.6859 36.5501C27.3626 36.5501 27.1002 36.2877 27.1002 35.9644C27.1002 35.6411 27.3626 35.3786 27.6859 35.3786ZM27.6859 30.6927C28.0092 30.6927 28.2716 30.9551 28.2716 31.2785C28.2716 31.6018 28.0092 31.8642 27.6859 31.8642C27.3626 31.8642 27.1002 31.6018 27.1002 31.2785C27.1002 30.9551 27.3626 30.6927 27.6859 30.6927ZM27.6859 26.0068C28.0092 26.0068 28.2716 26.2692 28.2716 26.5926C28.2716 26.9159 28.0092 27.1783 27.6859 27.1783C27.3626 27.1783 27.1002 26.9159 27.1002 26.5926C27.1002 26.2692 27.3626 26.0068 27.6859 26.0068ZM6.59932 27.1783C6.27599 27.1783 6.01358 26.9159 6.01358 26.5926C6.01358 26.2692 6.27599 26.0068 6.59932 26.0068C6.92265 26.0068 7.18506 26.2692 7.18506 26.5926C7.18506 26.9159 6.92265 27.1783 6.59932 27.1783ZM6.59932 31.8642C6.27599 31.8642 6.01358 31.6018 6.01358 31.2785C6.01358 30.9551 6.27599 30.6927 6.59932 30.6927C6.92265 30.6927 7.18506 30.9551 7.18506 31.2785C7.18506 31.6018 6.92265 31.8642 6.59932 31.8642ZM6.59932 36.5501C6.27599 36.5501 6.01358 36.2877 6.01358 35.9644C6.01358 35.6411 6.27599 35.3786 6.59932 35.3786C6.92265 35.3786 7.18506 35.6411 7.18506 35.9644C7.18506 36.2877 6.92265 36.5501 6.59932 36.5501ZM21.8285 20.1494C22.1518 20.1494 22.4143 20.4124 22.4143 20.7352C22.4143 21.0579 22.1518 21.3209 21.8285 21.3209C21.5052 21.3209 21.2428 21.0579 21.2428 20.7352C21.2428 20.4124 21.5052 20.1494 21.8285 20.1494ZM17.1426 20.1494C17.4659 20.1494 17.7283 20.4124 17.7283 20.7352C17.7283 21.0579 17.4659 21.3209 17.1426 21.3209C16.8193 21.3209 16.5569 21.0579 16.5569 20.7352C16.5569 20.4124 16.8193 20.1494 17.1426 20.1494ZM12.4567 20.1494C12.78 20.1494 13.0424 20.4124 13.0424 20.7352C13.0424 21.0579 12.78 21.3209 12.4567 21.3209C12.1334 21.3209 11.871 21.0579 11.871 20.7352C11.871 20.4124 12.1334 20.1494 12.4567 20.1494ZM12.4567 42.4075C12.1334 42.4075 11.871 42.1451 11.871 41.8218C11.871 41.4984 12.1334 41.236 12.4567 41.236C12.78 41.236 13.0424 41.4984 13.0424 41.8218C13.0424 42.1451 12.78 42.4075 12.4567 42.4075ZM17.1426 42.4075C16.8193 42.4075 16.5569 42.1451 16.5569 41.8218C16.5569 41.4984 16.8193 41.236 17.1426 41.236C17.4659 41.236 17.7283 41.4984 17.7283 41.8218C17.7283 42.1451 17.4659 42.4075 17.1426 42.4075ZM21.8285 42.4075C21.5052 42.4075 21.2428 42.1451 21.2428 41.8218C21.2428 41.4984 21.5052 41.236 21.8285 41.236C22.1518 41.236 22.4143 41.4984 22.4143 41.8218C22.4143 42.1451 22.1518 42.4075 21.8285 42.4075ZM22.4143 36.5501H11.871V26.0068H22.4143V36.5501Z" fill="white"/>
<path d="M38.519 16.6344V16.635C38.3005 15.788 37.9643 14.9785 37.5151 14.2194L39.383 12.3509L36.0695 9.03797L34.201 10.9065C33.4418 10.4566 32.6329 10.1204 31.7859 9.90194V7.26318H27.1V9.90194C26.2531 10.1204 25.4442 10.4566 24.685 10.9059L22.8165 9.03739L19.503 12.3503L21.3709 14.2188C20.9217 14.9779 20.5855 15.7874 20.367 16.6344H18.314V17.8059H21.3118L21.4072 17.3367C21.6152 16.3111 22.0176 15.3429 22.6033 14.4578L22.8675 14.0589L21.1589 12.3503L22.816 10.6939L24.5246 12.4025L24.9234 12.1383C25.8079 11.5525 26.7761 11.1501 27.8023 10.9422L28.2715 10.8473V8.43466H30.6145V10.8473L31.0837 10.9428C32.1099 11.1507 33.0781 11.5531 33.9626 12.1389L34.3614 12.403L36.07 10.6944L37.7271 12.3509L36.0185 14.0595L36.2827 14.4584C36.8684 15.3434 37.2708 16.3117 37.4787 17.3373L37.5742 17.8065H39.9863V20.1494H37.5742L37.4787 20.6186C37.2708 21.6442 36.8684 22.6125 36.2827 23.4969L36.0185 23.8964L37.7271 25.605L36.07 27.2621L34.3614 25.5535L33.9626 25.8176C33.0775 26.4034 32.1093 26.8064 31.0837 27.0137L30.6145 27.1092V30.107H31.7859V28.054C32.6323 27.8361 33.4418 27.4999 34.201 27.05L36.0695 28.9179L39.383 25.6044L37.5151 23.7359C37.9643 22.9768 38.3005 22.1673 38.519 21.3203H41.1578V16.6344H38.519Z" fill="white"/>
<path d="M29.4431 23.6638V24.8353C32.6728 24.8353 35.3005 22.2077 35.3005 18.9779C35.3005 15.7482 32.6728 13.1205 29.4431 13.1205C26.2133 13.1205 23.5857 15.7482 23.5857 18.9779H24.7572C24.7572 16.3942 26.8594 14.292 29.4431 14.292C32.0268 14.292 34.129 16.3942 34.129 18.9779C34.129 21.5616 32.0268 23.6638 29.4431 23.6638Z" fill="white"/>
<path d="M21.2429 27.1783H13.0425V28.3498H21.2429V27.1783Z" fill="white"/>
<path d="M21.2428 34.2072H20.0713V35.3786H21.2428V34.2072Z" fill="white"/>
<path d="M18.8999 34.2072H13.0425V35.3786H18.8999V34.2072Z" fill="white"/>
<path d="M26.3977 42.0666L26.6309 43.2153C33.7827 41.7632 39.342 36.204 40.794 29.0521L39.6454 28.819C38.2882 35.5093 33.088 40.7095 26.3977 42.0666Z" fill="white"/>
<path d="M19.602 8.77494L19.3689 7.62689C12.217 9.07894 6.6578 14.6382 5.20575 21.7901L6.35438 22.0226C7.71154 15.3335 12.9117 10.1327 19.602 8.77494Z" fill="white"/>
</g>
<defs>
<clipPath id="clip0_1_270">
<rect width="36.3158" height="36.3158" fill="white" transform="translate(4.8421 7.26318)"/>
</clipPath>
</defs>
</svg>
